<svg xmlns="http://www.w3.org/2000/svg" width="1076" height="682"
     viewBox="0 0 1076 682" role="img"
     aria-label="Historico das carteiras indexado a base 100, por carteira">
<style>
  svg { color-scheme: light; --series-1:#2a78d6;--series-2:#eb6834;--series-3:#1baf7a;
        --surface-1:#fcfcfb; --text-primary:#0b0b0b; --text-secondary:#52514e;
        --grid:#e6e5e1; --baseline:#b9b8b2;
        background:var(--surface-1); }
  @media (prefers-color-scheme: dark) {
    svg { color-scheme: dark; --series-1:#3987e5;--series-2:#d95926;--series-3:#199e70;
          --surface-1:#1a1a19; --text-primary:#ffffff; --text-secondary:#c3c2b7;
          --grid:#2f2f2d; --baseline:#4d4c48; }
  }
  text { font-family: ui-sans-serif, system-ui, -apple-system, "Segoe UI",
          Roboto, Helvetica, Arial, sans-serif; }
  .title { font-size: 17px; font-weight: 600; fill: var(--text-primary); }
  .subtitle { font-size: 12px; fill: var(--text-secondary); }
  .panel-title { font-size: 13px; font-weight: 600; fill: var(--text-primary); }
  .axis { font-size: 10px; fill: var(--text-secondary); }
  .muted { font-size: 12px; fill: var(--text-secondary); }
  .legend { font-size: 12px; fill: var(--text-secondary); }
  .legend-mark { stroke-width: 2; }
  .grid { stroke: var(--grid); stroke-width: 1; }
  .baseline { stroke: var(--baseline); stroke-width: 1; stroke-dasharray: 3 3; }
  .line { fill: none; stroke-width: 2; stroke-linecap: round;
           stroke-linejoin: round; }
  .dot { stroke: var(--surface-1); stroke-width: 2; }
  .hit { fill: transparent; }
  .direct { font-size: 11px; font-weight: 600; }
  .base { font-size: 9px; }
</style>
<rect width="100%" height="100%" fill="var(--surface-1)"/>
<text class="title" x="52" y="28">Historico das carteiras — 2026-08-24</text>
<text class="subtitle" x="52" y="46">Base 100 na data de inicio de cada carteira. Paper trading.</text>
<g transform="translate(52,76)">
<line class="legend-mark" style="stroke:var(--series-1)" x1="0" y1="-4" x2="18" y2="-4"/>
<circle style="fill:var(--series-1)" cx="9" cy="-4" r="4"/>
<text class="legend" x="25" y="0">Carteira</text>
<line class="legend-mark" style="stroke:var(--series-2)" x1="190" y1="-4" x2="208" y2="-4"/>
<circle style="fill:var(--series-2)" cx="199" cy="-4" r="4"/>
<text class="legend" x="215" y="0">Benchmark de mercado</text>
<line class="legend-mark" style="stroke:var(--series-3)" x1="380" y1="-4" x2="398" y2="-4"/>
<circle style="fill:var(--series-3)" cx="389" cy="-4" r="4"/>
<text class="legend" x="405" y="0">CDI</text>
</g>
<g transform="translate(52,112)">
<text class="panel-title" x="0" y="-12">Acoes EUA vs SPY</text>
<line class="grid" x1="0" y1="95.0" x2="400" y2="95.0"/>
<line class="grid" x1="0" y1="8.8" x2="400" y2="8.8"/>
<line class="grid" x1="0" y1="181.2" x2="400" y2="181.2"/>
<line class="baseline" x1="0" y1="110.9" x2="400" y2="110.9"/>
<text class="axis" x="-8" y="10" text-anchor="end">105.4</text>
<text class="axis" x="-8" y="190" text-anchor="end">96.2</text>
<text class="axis base" x="-8" y="113.9" text-anchor="end">100</text>
<text class="axis" x="0" y="206">2026-08-06</text>
<text class="axis" x="400" y="206" text-anchor="end">2026-08-24</text>
<path class="line" style="stroke:var(--series-1)" d="M0.0,119.1 L23.5,115.5 L47.1,115.5 L70.6,115.5 L94.1,122.0 L117.6,114.8 L141.2,62.1 L164.7,38.0 L188.2,54.6 L211.8,54.6 L235.3,54.6 L258.8,25.1 L282.4,98.2 L305.9,159.6 L329.4,164.9 L352.9,157.7 L376.5,157.7 L400.0,157.7"/>
<circle class="dot" style="fill:var(--series-1)" cx="0.0" cy="119.1" r="4"/>
<circle class="dot" style="fill:var(--series-1)" cx="23.5" cy="115.5" r="4"/>
<circle class="dot" style="fill:var(--series-1)" cx="47.1" cy="115.5" r="4"/>
<circle class="dot" style="fill:var(--series-1)" cx="70.6" cy="115.5" r="4"/>
<circle class="dot" style="fill:var(--series-1)" cx="94.1" cy="122.0" r="4"/>
<circle class="dot" style="fill:var(--series-1)" cx="117.6" cy="114.8" r="4"/>
<circle class="dot" style="fill:var(--series-1)" cx="141.2" cy="62.1" r="4"/>
<circle class="dot" style="fill:var(--series-1)" cx="164.7" cy="38.0" r="4"/>
<circle class="dot" style="fill:var(--series-1)" cx="188.2" cy="54.6" r="4"/>
<circle class="dot" style="fill:var(--series-1)" cx="211.8" cy="54.6" r="4"/>
<circle class="dot" style="fill:var(--series-1)" cx="235.3" cy="54.6" r="4"/>
<circle class="dot" style="fill:var(--series-1)" cx="258.8" cy="25.1" r="4"/>
<circle class="dot" style="fill:var(--series-1)" cx="282.4" cy="98.2" r="4"/>
<circle class="dot" style="fill:var(--series-1)" cx="305.9" cy="159.6" r="4"/>
<circle class="dot" style="fill:var(--series-1)" cx="329.4" cy="164.9" r="4"/>
<circle class="dot" style="fill:var(--series-1)" cx="352.9" cy="157.7" r="4"/>
<circle class="dot" style="fill:var(--series-1)" cx="376.5" cy="157.7" r="4"/>
<circle class="dot" style="fill:var(--series-1)" cx="400.0" cy="157.7" r="4"/>
<circle class="hit" cx="0.0" cy="119.1" r="10"><title>Carteira — 2026-08-06: 99.61 (base 100)</title></circle>
<circle class="hit" cx="23.5" cy="115.5" r="10"><title>Carteira — 2026-08-07: 99.78 (base 100)</title></circle>
<circle class="hit" cx="47.1" cy="115.5" r="10"><title>Carteira — 2026-08-08: 99.78 (base 100)</title></circle>
<circle class="hit" cx="70.6" cy="115.5" r="10"><title>Carteira — 2026-08-09: 99.78 (base 100)</title></circle>
<circle class="hit" cx="94.1" cy="122.0" r="10"><title>Carteira — 2026-08-10: 99.46 (base 100)</title></circle>
<circle class="hit" cx="117.6" cy="114.8" r="10"><title>Carteira — 2026-08-12: 99.81 (base 100)</title></circle>
<circle class="hit" cx="141.2" cy="62.1" r="10"><title>Carteira — 2026-08-13: 102.36 (base 100)</title></circle>
<circle class="hit" cx="164.7" cy="38.0" r="10"><title>Carteira — 2026-08-14: 103.52 (base 100)</title></circle>
<circle class="hit" cx="188.2" cy="54.6" r="10"><title>Carteira — 2026-08-15: 102.73 (base 100)</title></circle>
<circle class="hit" cx="211.8" cy="54.6" r="10"><title>Carteira — 2026-08-16: 102.73 (base 100)</title></circle>
<circle class="hit" cx="235.3" cy="54.6" r="10"><title>Carteira — 2026-08-17: 102.72 (base 100)</title></circle>
<circle class="hit" cx="258.8" cy="25.1" r="10"><title>Carteira — 2026-08-18: 104.15 (base 100)</title></circle>
<circle class="hit" cx="282.4" cy="98.2" r="10"><title>Carteira — 2026-08-19: 100.62 (base 100)</title></circle>
<circle class="hit" cx="305.9" cy="159.6" r="10"><title>Carteira — 2026-08-20: 97.65 (base 100)</title></circle>
<circle class="hit" cx="329.4" cy="164.9" r="10"><title>Carteira — 2026-08-21: 97.39 (base 100)</title></circle>
<circle class="hit" cx="352.9" cy="157.7" r="10"><title>Carteira — 2026-08-22: 97.74 (base 100)</title></circle>
<circle class="hit" cx="376.5" cy="157.7" r="10"><title>Carteira — 2026-08-23: 97.74 (base 100)</title></circle>
<circle class="hit" cx="400.0" cy="157.7" r="10"><title>Carteira — 2026-08-24: 97.74 (base 100)</title></circle>
<path class="line" style="stroke:var(--series-2)" d="M0.0,114.2 L23.5,101.6 L47.1,101.6 L70.6,101.6 L94.1,102.2 L117.6,108.9 L141.2,103.7 L164.7,89.2 L188.2,93.3 L211.8,93.3 L235.3,93.3 L258.8,103.2 L282.4,117.2 L305.9,112.9 L329.4,130.3 L352.9,121.9 L376.5,121.9 L400.0,121.9"/>
<circle class="dot" style="fill:var(--series-2)" cx="0.0" cy="114.2" r="4"/>
<circle class="dot" style="fill:var(--series-2)" cx="23.5" cy="101.6" r="4"/>
<circle class="dot" style="fill:var(--series-2)" cx="47.1" cy="101.6" r="4"/>
<circle class="dot" style="fill:var(--series-2)" cx="70.6" cy="101.6" r="4"/>
<circle class="dot" style="fill:var(--series-2)" cx="94.1" cy="102.2" r="4"/>
<circle class="dot" style="fill:var(--series-2)" cx="117.6" cy="108.9" r="4"/>
<circle class="dot" style="fill:var(--series-2)" cx="141.2" cy="103.7" r="4"/>
<circle class="dot" style="fill:var(--series-2)" cx="164.7" cy="89.2" r="4"/>
<circle class="dot" style="fill:var(--series-2)" cx="188.2" cy="93.3" r="4"/>
<circle class="dot" style="fill:var(--series-2)" cx="211.8" cy="93.3" r="4"/>
<circle class="dot" style="fill:var(--series-2)" cx="235.3" cy="93.3" r="4"/>
<circle class="dot" style="fill:var(--series-2)" cx="258.8" cy="103.2" r="4"/>
<circle class="dot" style="fill:var(--series-2)" cx="282.4" cy="117.2" r="4"/>
<circle class="dot" style="fill:var(--series-2)" cx="305.9" cy="112.9" r="4"/>
<circle class="dot" style="fill:var(--series-2)" cx="329.4" cy="130.3" r="4"/>
<circle class="dot" style="fill:var(--series-2)" cx="352.9" cy="121.9" r="4"/>
<circle class="dot" style="fill:var(--series-2)" cx="376.5" cy="121.9" r="4"/>
<circle class="dot" style="fill:var(--series-2)" cx="400.0" cy="121.9" r="4"/>
<circle class="hit" cx="0.0" cy="114.2" r="10"><title>SPY — 2026-08-06: 99.84 (base 100)</title></circle>
<circle class="hit" cx="23.5" cy="101.6" r="10"><title>SPY — 2026-08-07: 100.45 (base 100)</title></circle>
<circle class="hit" cx="47.1" cy="101.6" r="10"><title>SPY — 2026-08-08: 100.45 (base 100)</title></circle>
<circle class="hit" cx="70.6" cy="101.6" r="10"><title>SPY — 2026-08-09: 100.45 (base 100)</title></circle>
<circle class="hit" cx="94.1" cy="102.2" r="10"><title>SPY — 2026-08-10: 100.42 (base 100)</title></circle>
<circle class="hit" cx="117.6" cy="108.9" r="10"><title>SPY — 2026-08-12: 100.10 (base 100)</title></circle>
<circle class="hit" cx="141.2" cy="103.7" r="10"><title>SPY — 2026-08-13: 100.35 (base 100)</title></circle>
<circle class="hit" cx="164.7" cy="89.2" r="10"><title>SPY — 2026-08-14: 101.05 (base 100)</title></circle>
<circle class="hit" cx="188.2" cy="93.3" r="10"><title>SPY — 2026-08-15: 100.85 (base 100)</title></circle>
<circle class="hit" cx="211.8" cy="93.3" r="10"><title>SPY — 2026-08-16: 100.85 (base 100)</title></circle>
<circle class="hit" cx="235.3" cy="93.3" r="10"><title>SPY — 2026-08-17: 100.85 (base 100)</title></circle>
<circle class="hit" cx="258.8" cy="103.2" r="10"><title>SPY — 2026-08-18: 100.37 (base 100)</title></circle>
<circle class="hit" cx="282.4" cy="117.2" r="10"><title>SPY — 2026-08-19: 99.70 (base 100)</title></circle>
<circle class="hit" cx="305.9" cy="112.9" r="10"><title>SPY — 2026-08-20: 99.91 (base 100)</title></circle>
<circle class="hit" cx="329.4" cy="130.3" r="10"><title>SPY — 2026-08-21: 99.07 (base 100)</title></circle>
<circle class="hit" cx="352.9" cy="121.9" r="10"><title>SPY — 2026-08-22: 99.47 (base 100)</title></circle>
<circle class="hit" cx="376.5" cy="121.9" r="10"><title>SPY — 2026-08-23: 99.47 (base 100)</title></circle>
<circle class="hit" cx="400.0" cy="121.9" r="10"><title>SPY — 2026-08-24: 99.47 (base 100)</title></circle>
<text class="direct" style="fill:var(--series-2)" x="409.0" y="124.9">SPY</text>
<text class="direct" style="fill:var(--series-1)" x="409.0" y="160.7">Carteira</text>
</g>
<g transform="translate(566,112)">
<text class="panel-title" x="0" y="-12">Crypto vs BTC</text>
<line class="grid" x1="0" y1="95.0" x2="400" y2="95.0"/>
<line class="grid" x1="0" y1="8.8" x2="400" y2="8.8"/>
<line class="grid" x1="0" y1="181.2" x2="400" y2="181.2"/>
<line class="baseline" x1="0" y1="151.5" x2="400" y2="151.5"/>
<text class="axis" x="-8" y="10" text-anchor="end">127.2</text>
<text class="axis" x="-8" y="190" text-anchor="end">93.1</text>
<text class="axis base" x="-8" y="154.5" text-anchor="end">100</text>
<text class="axis" x="0" y="206">2026-08-06</text>
<text class="axis" x="400" y="206" text-anchor="end">2026-08-24</text>
<path class="line" style="stroke:var(--series-1)" d="M0.0,152.0 L22.2,150.6 L44.4,149.6 L66.7,149.5 L88.9,155.9 L111.1,153.5 L133.3,159.6 L155.6,157.3 L177.8,158.9 L200.0,154.8 L222.2,155.2 L244.4,152.9 L266.7,154.3 L288.9,134.3 L311.1,121.4 L333.3,63.2 L355.6,61.8 L377.8,42.6 L400.0,51.2"/>
<circle class="dot" style="fill:var(--series-1)" cx="0.0" cy="152.0" r="4"/>
<circle class="dot" style="fill:var(--series-1)" cx="22.2" cy="150.6" r="4"/>
<circle class="dot" style="fill:var(--series-1)" cx="44.4" cy="149.6" r="4"/>
<circle class="dot" style="fill:var(--series-1)" cx="66.7" cy="149.5" r="4"/>
<circle class="dot" style="fill:var(--series-1)" cx="88.9" cy="155.9" r="4"/>
<circle class="dot" style="fill:var(--series-1)" cx="111.1" cy="153.5" r="4"/>
<circle class="dot" style="fill:var(--series-1)" cx="133.3" cy="159.6" r="4"/>
<circle class="dot" style="fill:var(--series-1)" cx="155.6" cy="157.3" r="4"/>
<circle class="dot" style="fill:var(--series-1)" cx="177.8" cy="158.9" r="4"/>
<circle class="dot" style="fill:var(--series-1)" cx="200.0" cy="154.8" r="4"/>
<circle class="dot" style="fill:var(--series-1)" cx="222.2" cy="155.2" r="4"/>
<circle class="dot" style="fill:var(--series-1)" cx="244.4" cy="152.9" r="4"/>
<circle class="dot" style="fill:var(--series-1)" cx="266.7" cy="154.3" r="4"/>
<circle class="dot" style="fill:var(--series-1)" cx="288.9" cy="134.3" r="4"/>
<circle class="dot" style="fill:var(--series-1)" cx="311.1" cy="121.4" r="4"/>
<circle class="dot" style="fill:var(--series-1)" cx="333.3" cy="63.2" r="4"/>
<circle class="dot" style="fill:var(--series-1)" cx="355.6" cy="61.8" r="4"/>
<circle class="dot" style="fill:var(--series-1)" cx="377.8" cy="42.6" r="4"/>
<circle class="dot" style="fill:var(--series-1)" cx="400.0" cy="51.2" r="4"/>
<circle class="hit" cx="0.0" cy="152.0" r="10"><title>Carteira — 2026-08-06: 99.90 (base 100)</title></circle>
<circle class="hit" cx="22.2" cy="150.6" r="10"><title>Carteira — 2026-08-07: 100.17 (base 100)</title></circle>
<circle class="hit" cx="44.4" cy="149.6" r="10"><title>Carteira — 2026-08-08: 100.33 (base 100)</title></circle>
<circle class="hit" cx="66.7" cy="149.5" r="10"><title>Carteira — 2026-08-09: 100.35 (base 100)</title></circle>
<circle class="hit" cx="88.9" cy="155.9" r="10"><title>Carteira — 2026-08-10: 99.21 (base 100)</title></circle>
<circle class="hit" cx="111.1" cy="153.5" r="10"><title>Carteira — 2026-08-11: 99.63 (base 100)</title></circle>
<circle class="hit" cx="133.3" cy="159.6" r="10"><title>Carteira — 2026-08-12: 98.55 (base 100)</title></circle>
<circle class="hit" cx="155.6" cy="157.3" r="10"><title>Carteira — 2026-08-13: 98.96 (base 100)</title></circle>
<circle class="hit" cx="177.8" cy="158.9" r="10"><title>Carteira — 2026-08-14: 98.68 (base 100)</title></circle>
<circle class="hit" cx="200.0" cy="154.8" r="10"><title>Carteira — 2026-08-15: 99.40 (base 100)</title></circle>
<circle class="hit" cx="222.2" cy="155.2" r="10"><title>Carteira — 2026-08-16: 99.34 (base 100)</title></circle>
<circle class="hit" cx="244.4" cy="152.9" r="10"><title>Carteira — 2026-08-17: 99.75 (base 100)</title></circle>
<circle class="hit" cx="266.7" cy="154.3" r="10"><title>Carteira — 2026-08-18: 99.49 (base 100)</title></circle>
<circle class="hit" cx="288.9" cy="134.3" r="10"><title>Carteira — 2026-08-19: 103.08 (base 100)</title></circle>
<circle class="hit" cx="311.1" cy="121.4" r="10"><title>Carteira — 2026-08-20: 105.40 (base 100)</title></circle>
<circle class="hit" cx="333.3" cy="63.2" r="10"><title>Carteira — 2026-08-21: 115.83 (base 100)</title></circle>
<circle class="hit" cx="355.6" cy="61.8" r="10"><title>Carteira — 2026-08-22: 116.09 (base 100)</title></circle>
<circle class="hit" cx="377.8" cy="42.6" r="10"><title>Carteira — 2026-08-23: 119.53 (base 100)</title></circle>
<circle class="hit" cx="400.0" cy="51.2" r="10"><title>Carteira — 2026-08-24: 117.99 (base 100)</title></circle>
<path class="line" style="stroke:var(--series-2)" d="M0.0,152.5 L22.2,147.2 L44.4,146.4 L66.7,145.0 L88.9,155.8 L111.1,159.2 L133.3,160.9 L155.6,160.0 L177.8,164.9 L200.0,163.0 L222.2,164.2 L244.4,151.0 L266.7,150.0 L288.9,106.3 L311.1,79.7 L333.3,32.4 L355.6,42.9 L377.8,37.2 L400.0,25.1"/>
<circle class="dot" style="fill:var(--series-2)" cx="0.0" cy="152.5" r="4"/>
<circle class="dot" style="fill:var(--series-2)" cx="22.2" cy="147.2" r="4"/>
<circle class="dot" style="fill:var(--series-2)" cx="44.4" cy="146.4" r="4"/>
<circle class="dot" style="fill:var(--series-2)" cx="66.7" cy="145.0" r="4"/>
<circle class="dot" style="fill:var(--series-2)" cx="88.9" cy="155.8" r="4"/>
<circle class="dot" style="fill:var(--series-2)" cx="111.1" cy="159.2" r="4"/>
<circle class="dot" style="fill:var(--series-2)" cx="133.3" cy="160.9" r="4"/>
<circle class="dot" style="fill:var(--series-2)" cx="155.6" cy="160.0" r="4"/>
<circle class="dot" style="fill:var(--series-2)" cx="177.8" cy="164.9" r="4"/>
<circle class="dot" style="fill:var(--series-2)" cx="200.0" cy="163.0" r="4"/>
<circle class="dot" style="fill:var(--series-2)" cx="222.2" cy="164.2" r="4"/>
<circle class="dot" style="fill:var(--series-2)" cx="244.4" cy="151.0" r="4"/>
<circle class="dot" style="fill:var(--series-2)" cx="266.7" cy="150.0" r="4"/>
<circle class="dot" style="fill:var(--series-2)" cx="288.9" cy="106.3" r="4"/>
<circle class="dot" style="fill:var(--series-2)" cx="311.1" cy="79.7" r="4"/>
<circle class="dot" style="fill:var(--series-2)" cx="333.3" cy="32.4" r="4"/>
<circle class="dot" style="fill:var(--series-2)" cx="355.6" cy="42.9" r="4"/>
<circle class="dot" style="fill:var(--series-2)" cx="377.8" cy="37.2" r="4"/>
<circle class="dot" style="fill:var(--series-2)" cx="400.0" cy="25.1" r="4"/>
<circle class="hit" cx="0.0" cy="152.5" r="10"><title>BTC — 2026-08-06: 99.82 (base 100)</title></circle>
<circle class="hit" cx="22.2" cy="147.2" r="10"><title>BTC — 2026-08-07: 100.77 (base 100)</title></circle>
<circle class="hit" cx="44.4" cy="146.4" r="10"><title>BTC — 2026-08-08: 100.92 (base 100)</title></circle>
<circle class="hit" cx="66.7" cy="145.0" r="10"><title>BTC — 2026-08-09: 101.16 (base 100)</title></circle>
<circle class="hit" cx="88.9" cy="155.8" r="10"><title>BTC — 2026-08-10: 99.22 (base 100)</title></circle>
<circle class="hit" cx="111.1" cy="159.2" r="10"><title>BTC — 2026-08-11: 98.62 (base 100)</title></circle>
<circle class="hit" cx="133.3" cy="160.9" r="10"><title>BTC — 2026-08-12: 98.31 (base 100)</title></circle>
<circle class="hit" cx="155.6" cy="160.0" r="10"><title>BTC — 2026-08-13: 98.47 (base 100)</title></circle>
<circle class="hit" cx="177.8" cy="164.9" r="10"><title>BTC — 2026-08-14: 97.60 (base 100)</title></circle>
<circle class="hit" cx="200.0" cy="163.0" r="10"><title>BTC — 2026-08-15: 97.93 (base 100)</title></circle>
<circle class="hit" cx="222.2" cy="164.2" r="10"><title>BTC — 2026-08-16: 97.71 (base 100)</title></circle>
<circle class="hit" cx="244.4" cy="151.0" r="10"><title>BTC — 2026-08-17: 100.08 (base 100)</title></circle>
<circle class="hit" cx="266.7" cy="150.0" r="10"><title>BTC — 2026-08-18: 100.26 (base 100)</title></circle>
<circle class="hit" cx="288.9" cy="106.3" r="10"><title>BTC — 2026-08-19: 108.11 (base 100)</title></circle>
<circle class="hit" cx="311.1" cy="79.7" r="10"><title>BTC — 2026-08-20: 112.88 (base 100)</title></circle>
<circle class="hit" cx="333.3" cy="32.4" r="10"><title>BTC — 2026-08-21: 121.36 (base 100)</title></circle>
<circle class="hit" cx="355.6" cy="42.9" r="10"><title>BTC — 2026-08-22: 119.49 (base 100)</title></circle>
<circle class="hit" cx="377.8" cy="37.2" r="10"><title>BTC — 2026-08-23: 120.51 (base 100)</title></circle>
<circle class="hit" cx="400.0" cy="25.1" r="10"><title>BTC — 2026-08-24: 122.67 (base 100)</title></circle>
<text class="direct" style="fill:var(--series-2)" x="409.0" y="28.1">BTC</text>
<text class="direct" style="fill:var(--series-1)" x="409.0" y="54.2">Carteira</text>
</g>
<g transform="translate(52,380)">
<text class="panel-title" x="0" y="-12">Acoes B3 vs IBOV e CDI</text>
<line class="grid" x1="0" y1="95.0" x2="400" y2="95.0"/>
<line class="grid" x1="0" y1="8.8" x2="400" y2="8.8"/>
<line class="grid" x1="0" y1="181.2" x2="400" y2="181.2"/>
<line class="baseline" x1="0" y1="38.8" x2="400" y2="38.8"/>
<text class="axis" x="-8" y="10" text-anchor="end">101.6</text>
<text class="axis" x="-8" y="190" text-anchor="end">93.7</text>
<text class="axis base" x="-8" y="41.8" text-anchor="end">100</text>
<text class="axis" x="0" y="206">2026-08-06</text>
<text class="axis" x="400" y="206" text-anchor="end">2026-08-24</text>
<path class="line" style="stroke:var(--series-1)" d="M0.0,41.2 L23.5,93.4 L47.1,93.4 L70.6,93.4 L94.1,84.2 L117.6,118.2 L141.2,117.0 L164.7,119.3 L188.2,121.6 L211.8,121.6 L235.3,87.5 L258.8,87.5 L282.4,93.6 L305.9,83.0 L329.4,71.7 L352.9,55.8 L376.5,55.8 L400.0,55.9"/>
<circle class="dot" style="fill:var(--series-1)" cx="0.0" cy="41.2" r="4"/>
<circle class="dot" style="fill:var(--series-1)" cx="23.5" cy="93.4" r="4"/>
<circle class="dot" style="fill:var(--series-1)" cx="47.1" cy="93.4" r="4"/>
<circle class="dot" style="fill:var(--series-1)" cx="70.6" cy="93.4" r="4"/>
<circle class="dot" style="fill:var(--series-1)" cx="94.1" cy="84.2" r="4"/>
<circle class="dot" style="fill:var(--series-1)" cx="117.6" cy="118.2" r="4"/>
<circle class="dot" style="fill:var(--series-1)" cx="141.2" cy="117.0" r="4"/>
<circle class="dot" style="fill:var(--series-1)" cx="164.7" cy="119.3" r="4"/>
<circle class="dot" style="fill:var(--series-1)" cx="188.2" cy="121.6" r="4"/>
<circle class="dot" style="fill:var(--series-1)" cx="211.8" cy="121.6" r="4"/>
<circle class="dot" style="fill:var(--series-1)" cx="235.3" cy="87.5" r="4"/>
<circle class="dot" style="fill:var(--series-1)" cx="258.8" cy="87.5" r="4"/>
<circle class="dot" style="fill:var(--series-1)" cx="282.4" cy="93.6" r="4"/>
<circle class="dot" style="fill:var(--series-1)" cx="305.9" cy="83.0" r="4"/>
<circle class="dot" style="fill:var(--series-1)" cx="329.4" cy="71.7" r="4"/>
<circle class="dot" style="fill:var(--series-1)" cx="352.9" cy="55.8" r="4"/>
<circle class="dot" style="fill:var(--series-1)" cx="376.5" cy="55.8" r="4"/>
<circle class="dot" style="fill:var(--series-1)" cx="400.0" cy="55.9" r="4"/>
<circle class="hit" cx="0.0" cy="41.2" r="10"><title>Carteira — 2026-08-06: 99.90 (base 100)</title></circle>
<circle class="hit" cx="23.5" cy="93.4" r="10"><title>Carteira — 2026-08-07: 97.73 (base 100)</title></circle>
<circle class="hit" cx="47.1" cy="93.4" r="10"><title>Carteira — 2026-08-08: 97.73 (base 100)</title></circle>
<circle class="hit" cx="70.6" cy="93.4" r="10"><title>Carteira — 2026-08-09: 97.73 (base 100)</title></circle>
<circle class="hit" cx="94.1" cy="84.2" r="10"><title>Carteira — 2026-08-10: 98.11 (base 100)</title></circle>
<circle class="hit" cx="117.6" cy="118.2" r="10"><title>Carteira — 2026-08-12: 96.69 (base 100)</title></circle>
<circle class="hit" cx="141.2" cy="117.0" r="10"><title>Carteira — 2026-08-13: 96.74 (base 100)</title></circle>
<circle class="hit" cx="164.7" cy="119.3" r="10"><title>Carteira — 2026-08-14: 96.65 (base 100)</title></circle>
<circle class="hit" cx="188.2" cy="121.6" r="10"><title>Carteira — 2026-08-15: 96.55 (base 100)</title></circle>
<circle class="hit" cx="211.8" cy="121.6" r="10"><title>Carteira — 2026-08-16: 96.55 (base 100)</title></circle>
<circle class="hit" cx="235.3" cy="87.5" r="10"><title>Carteira — 2026-08-17: 97.97 (base 100)</title></circle>
<circle class="hit" cx="258.8" cy="87.5" r="10"><title>Carteira — 2026-08-18: 97.97 (base 100)</title></circle>
<circle class="hit" cx="282.4" cy="93.6" r="10"><title>Carteira — 2026-08-19: 97.72 (base 100)</title></circle>
<circle class="hit" cx="305.9" cy="83.0" r="10"><title>Carteira — 2026-08-20: 98.16 (base 100)</title></circle>
<circle class="hit" cx="329.4" cy="71.7" r="10"><title>Carteira — 2026-08-21: 98.63 (base 100)</title></circle>
<circle class="hit" cx="352.9" cy="55.8" r="10"><title>Carteira — 2026-08-22: 99.29 (base 100)</title></circle>
<circle class="hit" cx="376.5" cy="55.8" r="10"><title>Carteira — 2026-08-23: 99.29 (base 100)</title></circle>
<circle class="hit" cx="400.0" cy="55.9" r="10"><title>Carteira — 2026-08-24: 99.29 (base 100)</title></circle>
<path class="line" style="stroke:var(--series-2)" d="M0.0,38.8 L23.5,80.3 L47.1,80.3 L70.6,80.3 L94.1,84.9 L117.6,149.0 L141.2,154.4 L164.7,156.7 L188.2,156.7 L211.8,156.7 L235.3,158.7 L258.8,164.9 L282.4,144.4 L305.9,143.1 L329.4,100.6 L352.9,100.6 L376.5,108.6 L400.0,88.6"/>
<circle class="dot" style="fill:var(--series-2)" cx="0.0" cy="38.8" r="4"/>
<circle class="dot" style="fill:var(--series-2)" cx="23.5" cy="80.3" r="4"/>
<circle class="dot" style="fill:var(--series-2)" cx="47.1" cy="80.3" r="4"/>
<circle class="dot" style="fill:var(--series-2)" cx="70.6" cy="80.3" r="4"/>
<circle class="dot" style="fill:var(--series-2)" cx="94.1" cy="84.9" r="4"/>
<circle class="dot" style="fill:var(--series-2)" cx="117.6" cy="149.0" r="4"/>
<circle class="dot" style="fill:var(--series-2)" cx="141.2" cy="154.4" r="4"/>
<circle class="dot" style="fill:var(--series-2)" cx="164.7" cy="156.7" r="4"/>
<circle class="dot" style="fill:var(--series-2)" cx="188.2" cy="156.7" r="4"/>
<circle class="dot" style="fill:var(--series-2)" cx="211.8" cy="156.7" r="4"/>
<circle class="dot" style="fill:var(--series-2)" cx="235.3" cy="158.7" r="4"/>
<circle class="dot" style="fill:var(--series-2)" cx="258.8" cy="164.9" r="4"/>
<circle class="dot" style="fill:var(--series-2)" cx="282.4" cy="144.4" r="4"/>
<circle class="dot" style="fill:var(--series-2)" cx="305.9" cy="143.1" r="4"/>
<circle class="dot" style="fill:var(--series-2)" cx="329.4" cy="100.6" r="4"/>
<circle class="dot" style="fill:var(--series-2)" cx="352.9" cy="100.6" r="4"/>
<circle class="dot" style="fill:var(--series-2)" cx="376.5" cy="108.6" r="4"/>
<circle class="dot" style="fill:var(--series-2)" cx="400.0" cy="88.6" r="4"/>
<circle class="hit" cx="0.0" cy="38.8" r="10"><title>IBOV — 2026-08-06: 100.00 (base 100)</title></circle>
<circle class="hit" cx="23.5" cy="80.3" r="10"><title>IBOV — 2026-08-07: 98.27 (base 100)</title></circle>
<circle class="hit" cx="47.1" cy="80.3" r="10"><title>IBOV — 2026-08-08: 98.27 (base 100)</title></circle>
<circle class="hit" cx="70.6" cy="80.3" r="10"><title>IBOV — 2026-08-09: 98.27 (base 100)</title></circle>
<circle class="hit" cx="94.1" cy="84.9" r="10"><title>IBOV — 2026-08-10: 98.08 (base 100)</title></circle>
<circle class="hit" cx="117.6" cy="149.0" r="10"><title>IBOV — 2026-08-12: 95.41 (base 100)</title></circle>
<circle class="hit" cx="141.2" cy="154.4" r="10"><title>IBOV — 2026-08-13: 95.19 (base 100)</title></circle>
<circle class="hit" cx="164.7" cy="156.7" r="10"><title>IBOV — 2026-08-14: 95.09 (base 100)</title></circle>
<circle class="hit" cx="188.2" cy="156.7" r="10"><title>IBOV — 2026-08-15: 95.09 (base 100)</title></circle>
<circle class="hit" cx="211.8" cy="156.7" r="10"><title>IBOV — 2026-08-16: 95.09 (base 100)</title></circle>
<circle class="hit" cx="235.3" cy="158.7" r="10"><title>IBOV — 2026-08-17: 95.01 (base 100)</title></circle>
<circle class="hit" cx="258.8" cy="164.9" r="10"><title>IBOV — 2026-08-18: 94.75 (base 100)</title></circle>
<circle class="hit" cx="282.4" cy="144.4" r="10"><title>IBOV — 2026-08-19: 95.60 (base 100)</title></circle>
<circle class="hit" cx="305.9" cy="143.1" r="10"><title>IBOV — 2026-08-20: 95.66 (base 100)</title></circle>
<circle class="hit" cx="329.4" cy="100.6" r="10"><title>IBOV — 2026-08-21: 97.43 (base 100)</title></circle>
<circle class="hit" cx="352.9" cy="100.6" r="10"><title>IBOV — 2026-08-22: 97.43 (base 100)</title></circle>
<circle class="hit" cx="376.5" cy="108.6" r="10"><title>IBOV — 2026-08-23: 97.10 (base 100)</title></circle>
<circle class="hit" cx="400.0" cy="88.6" r="10"><title>IBOV — 2026-08-24: 97.93 (base 100)</title></circle>
<path class="line" style="stroke:var(--series-3)" d="M0.0,38.8 L23.5,38.8 L47.1,38.8 L70.6,38.8 L94.1,37.6 L117.6,35.1 L141.2,33.9 L164.7,32.6 L188.2,32.6 L211.8,32.6 L235.3,31.4 L258.8,30.1 L282.4,28.9 L305.9,27.6 L329.4,26.4 L352.9,26.4 L376.5,26.4 L400.0,25.1"/>
<circle class="dot" style="fill:var(--series-3)" cx="0.0" cy="38.8" r="4"/>
<circle class="dot" style="fill:var(--series-3)" cx="23.5" cy="38.8" r="4"/>
<circle class="dot" style="fill:var(--series-3)" cx="47.1" cy="38.8" r="4"/>
<circle class="dot" style="fill:var(--series-3)" cx="70.6" cy="38.8" r="4"/>
<circle class="dot" style="fill:var(--series-3)" cx="94.1" cy="37.6" r="4"/>
<circle class="dot" style="fill:var(--series-3)" cx="117.6" cy="35.1" r="4"/>
<circle class="dot" style="fill:var(--series-3)" cx="141.2" cy="33.9" r="4"/>
<circle class="dot" style="fill:var(--series-3)" cx="164.7" cy="32.6" r="4"/>
<circle class="dot" style="fill:var(--series-3)" cx="188.2" cy="32.6" r="4"/>
<circle class="dot" style="fill:var(--series-3)" cx="211.8" cy="32.6" r="4"/>
<circle class="dot" style="fill:var(--series-3)" cx="235.3" cy="31.4" r="4"/>
<circle class="dot" style="fill:var(--series-3)" cx="258.8" cy="30.1" r="4"/>
<circle class="dot" style="fill:var(--series-3)" cx="282.4" cy="28.9" r="4"/>
<circle class="dot" style="fill:var(--series-3)" cx="305.9" cy="27.6" r="4"/>
<circle class="dot" style="fill:var(--series-3)" cx="329.4" cy="26.4" r="4"/>
<circle class="dot" style="fill:var(--series-3)" cx="352.9" cy="26.4" r="4"/>
<circle class="dot" style="fill:var(--series-3)" cx="376.5" cy="26.4" r="4"/>
<circle class="dot" style="fill:var(--series-3)" cx="400.0" cy="25.1" r="4"/>
<circle class="hit" cx="0.0" cy="38.8" r="10"><title>CDI — 2026-08-06: 100.00 (base 100)</title></circle>
<circle class="hit" cx="23.5" cy="38.8" r="10"><title>CDI — 2026-08-07: 100.00 (base 100)</title></circle>
<circle class="hit" cx="47.1" cy="38.8" r="10"><title>CDI — 2026-08-08: 100.00 (base 100)</title></circle>
<circle class="hit" cx="70.6" cy="38.8" r="10"><title>CDI — 2026-08-09: 100.00 (base 100)</title></circle>
<circle class="hit" cx="94.1" cy="37.6" r="10"><title>CDI — 2026-08-10: 100.05 (base 100)</title></circle>
<circle class="hit" cx="117.6" cy="35.1" r="10"><title>CDI — 2026-08-12: 100.16 (base 100)</title></circle>
<circle class="hit" cx="141.2" cy="33.9" r="10"><title>CDI — 2026-08-13: 100.21 (base 100)</title></circle>
<circle class="hit" cx="164.7" cy="32.6" r="10"><title>CDI — 2026-08-14: 100.26 (base 100)</title></circle>
<circle class="hit" cx="188.2" cy="32.6" r="10"><title>CDI — 2026-08-15: 100.26 (base 100)</title></circle>
<circle class="hit" cx="211.8" cy="32.6" r="10"><title>CDI — 2026-08-16: 100.26 (base 100)</title></circle>
<circle class="hit" cx="235.3" cy="31.4" r="10"><title>CDI — 2026-08-17: 100.31 (base 100)</title></circle>
<circle class="hit" cx="258.8" cy="30.1" r="10"><title>CDI — 2026-08-18: 100.36 (base 100)</title></circle>
<circle class="hit" cx="282.4" cy="28.9" r="10"><title>CDI — 2026-08-19: 100.41 (base 100)</title></circle>
<circle class="hit" cx="305.9" cy="27.6" r="10"><title>CDI — 2026-08-20: 100.47 (base 100)</title></circle>
<circle class="hit" cx="329.4" cy="26.4" r="10"><title>CDI — 2026-08-21: 100.52 (base 100)</title></circle>
<circle class="hit" cx="352.9" cy="26.4" r="10"><title>CDI — 2026-08-22: 100.52 (base 100)</title></circle>
<circle class="hit" cx="376.5" cy="26.4" r="10"><title>CDI — 2026-08-23: 100.52 (base 100)</title></circle>
<circle class="hit" cx="400.0" cy="25.1" r="10"><title>CDI — 2026-08-24: 100.57 (base 100)</title></circle>
<text class="direct" style="fill:var(--series-3)" x="409.0" y="28.1">CDI</text>
<text class="direct" style="fill:var(--series-1)" x="409.0" y="58.9">Carteira</text>
<text class="direct" style="fill:var(--series-2)" x="409.0" y="91.6">IBOV</text>
</g>
<g transform="translate(566,380)">
<text class="panel-title" x="0" y="-12">Estruturadas B3 vs CDI</text>
<line class="grid" x1="0" y1="95.0" x2="400" y2="95.0"/>
<line class="grid" x1="0" y1="8.8" x2="400" y2="8.8"/>
<line class="grid" x1="0" y1="181.2" x2="400" y2="181.2"/>
<line class="baseline" x1="0" y1="38.8" x2="400" y2="38.8"/>
<text class="axis" x="-8" y="10" text-anchor="end">101.6</text>
<text class="axis" x="-8" y="190" text-anchor="end">93.7</text>
<text class="axis base" x="-8" y="41.8" text-anchor="end">100</text>
<text class="axis" x="0" y="206">2026-08-06</text>
<text class="axis" x="400" y="206" text-anchor="end">2026-08-24</text>
<path class="line" style="stroke:var(--series-1)" d="M0.0,38.4 L23.5,68.2 L47.1,67.2 L70.6,66.2 L94.1,60.8 L117.6,118.0 L141.2,123.8 L164.7,122.4 L188.2,123.7 L211.8,123.5 L235.3,124.0 L258.8,123.9 L282.4,127.1 L305.9,106.9 L329.4,106.8 L352.9,64.1 L376.5,63.6 L400.0,63.0"/>
<circle class="dot" style="fill:var(--series-1)" cx="0.0" cy="38.4" r="4"/>
<circle class="dot" style="fill:var(--series-1)" cx="23.5" cy="68.2" r="4"/>
<circle class="dot" style="fill:var(--series-1)" cx="47.1" cy="67.2" r="4"/>
<circle class="dot" style="fill:var(--series-1)" cx="70.6" cy="66.2" r="4"/>
<circle class="dot" style="fill:var(--series-1)" cx="94.1" cy="60.8" r="4"/>
<circle class="dot" style="fill:var(--series-1)" cx="117.6" cy="118.0" r="4"/>
<circle class="dot" style="fill:var(--series-1)" cx="141.2" cy="123.8" r="4"/>
<circle class="dot" style="fill:var(--series-1)" cx="164.7" cy="122.4" r="4"/>
<circle class="dot" style="fill:var(--series-1)" cx="188.2" cy="123.7" r="4"/>
<circle class="dot" style="fill:var(--series-1)" cx="211.8" cy="123.5" r="4"/>
<circle class="dot" style="fill:var(--series-1)" cx="235.3" cy="124.0" r="4"/>
<circle class="dot" style="fill:var(--series-1)" cx="258.8" cy="123.9" r="4"/>
<circle class="dot" style="fill:var(--series-1)" cx="282.4" cy="127.1" r="4"/>
<circle class="dot" style="fill:var(--series-1)" cx="305.9" cy="106.9" r="4"/>
<circle class="dot" style="fill:var(--series-1)" cx="329.4" cy="106.8" r="4"/>
<circle class="dot" style="fill:var(--series-1)" cx="352.9" cy="64.1" r="4"/>
<circle class="dot" style="fill:var(--series-1)" cx="376.5" cy="63.6" r="4"/>
<circle class="dot" style="fill:var(--series-1)" cx="400.0" cy="63.0" r="4"/>
<circle class="hit" cx="0.0" cy="38.4" r="10"><title>Carteira — 2026-08-06: 100.02 (base 100)</title></circle>
<circle class="hit" cx="23.5" cy="68.2" r="10"><title>Carteira — 2026-08-07: 98.78 (base 100)</title></circle>
<circle class="hit" cx="47.1" cy="67.2" r="10"><title>Carteira — 2026-08-08: 98.82 (base 100)</title></circle>
<circle class="hit" cx="70.6" cy="66.2" r="10"><title>Carteira — 2026-08-09: 98.86 (base 100)</title></circle>
<circle class="hit" cx="94.1" cy="60.8" r="10"><title>Carteira — 2026-08-10: 99.09 (base 100)</title></circle>
<circle class="hit" cx="117.6" cy="118.0" r="10"><title>Carteira — 2026-08-12: 96.70 (base 100)</title></circle>
<circle class="hit" cx="141.2" cy="123.8" r="10"><title>Carteira — 2026-08-13: 96.46 (base 100)</title></circle>
<circle class="hit" cx="164.7" cy="122.4" r="10"><title>Carteira — 2026-08-14: 96.52 (base 100)</title></circle>
<circle class="hit" cx="188.2" cy="123.7" r="10"><title>Carteira — 2026-08-15: 96.47 (base 100)</title></circle>
<circle class="hit" cx="211.8" cy="123.5" r="10"><title>Carteira — 2026-08-16: 96.48 (base 100)</title></circle>
<circle class="hit" cx="235.3" cy="124.0" r="10"><title>Carteira — 2026-08-17: 96.46 (base 100)</title></circle>
<circle class="hit" cx="258.8" cy="123.9" r="10"><title>Carteira — 2026-08-18: 96.46 (base 100)</title></circle>
<circle class="hit" cx="282.4" cy="127.1" r="10"><title>Carteira — 2026-08-19: 96.33 (base 100)</title></circle>
<circle class="hit" cx="305.9" cy="106.9" r="10"><title>Carteira — 2026-08-20: 97.17 (base 100)</title></circle>
<circle class="hit" cx="329.4" cy="106.8" r="10"><title>Carteira — 2026-08-21: 97.17 (base 100)</title></circle>
<circle class="hit" cx="352.9" cy="64.1" r="10"><title>Carteira — 2026-08-22: 98.95 (base 100)</title></circle>
<circle class="hit" cx="376.5" cy="63.6" r="10"><title>Carteira — 2026-08-23: 98.97 (base 100)</title></circle>
<circle class="hit" cx="400.0" cy="63.0" r="10"><title>Carteira — 2026-08-24: 98.99 (base 100)</title></circle>
<path class="line" style="stroke:var(--series-2)" d="M0.0,38.8 L23.5,80.3 L47.1,80.3 L70.6,80.3 L94.1,84.9 L117.6,149.0 L141.2,154.4 L164.7,156.7 L188.2,156.7 L211.8,156.7 L235.3,158.7 L258.8,164.9 L282.4,144.4 L305.9,143.1 L329.4,100.6 L352.9,100.6 L376.5,108.6 L400.0,88.6"/>
<circle class="dot" style="fill:var(--series-2)" cx="0.0" cy="38.8" r="4"/>
<circle class="dot" style="fill:var(--series-2)" cx="23.5" cy="80.3" r="4"/>
<circle class="dot" style="fill:var(--series-2)" cx="47.1" cy="80.3" r="4"/>
<circle class="dot" style="fill:var(--series-2)" cx="70.6" cy="80.3" r="4"/>
<circle class="dot" style="fill:var(--series-2)" cx="94.1" cy="84.9" r="4"/>
<circle class="dot" style="fill:var(--series-2)" cx="117.6" cy="149.0" r="4"/>
<circle class="dot" style="fill:var(--series-2)" cx="141.2" cy="154.4" r="4"/>
<circle class="dot" style="fill:var(--series-2)" cx="164.7" cy="156.7" r="4"/>
<circle class="dot" style="fill:var(--series-2)" cx="188.2" cy="156.7" r="4"/>
<circle class="dot" style="fill:var(--series-2)" cx="211.8" cy="156.7" r="4"/>
<circle class="dot" style="fill:var(--series-2)" cx="235.3" cy="158.7" r="4"/>
<circle class="dot" style="fill:var(--series-2)" cx="258.8" cy="164.9" r="4"/>
<circle class="dot" style="fill:var(--series-2)" cx="282.4" cy="144.4" r="4"/>
<circle class="dot" style="fill:var(--series-2)" cx="305.9" cy="143.1" r="4"/>
<circle class="dot" style="fill:var(--series-2)" cx="329.4" cy="100.6" r="4"/>
<circle class="dot" style="fill:var(--series-2)" cx="352.9" cy="100.6" r="4"/>
<circle class="dot" style="fill:var(--series-2)" cx="376.5" cy="108.6" r="4"/>
<circle class="dot" style="fill:var(--series-2)" cx="400.0" cy="88.6" r="4"/>
<circle class="hit" cx="0.0" cy="38.8" r="10"><title>IBOV — 2026-08-06: 100.00 (base 100)</title></circle>
<circle class="hit" cx="23.5" cy="80.3" r="10"><title>IBOV — 2026-08-07: 98.27 (base 100)</title></circle>
<circle class="hit" cx="47.1" cy="80.3" r="10"><title>IBOV — 2026-08-08: 98.27 (base 100)</title></circle>
<circle class="hit" cx="70.6" cy="80.3" r="10"><title>IBOV — 2026-08-09: 98.27 (base 100)</title></circle>
<circle class="hit" cx="94.1" cy="84.9" r="10"><title>IBOV — 2026-08-10: 98.08 (base 100)</title></circle>
<circle class="hit" cx="117.6" cy="149.0" r="10"><title>IBOV — 2026-08-12: 95.41 (base 100)</title></circle>
<circle class="hit" cx="141.2" cy="154.4" r="10"><title>IBOV — 2026-08-13: 95.19 (base 100)</title></circle>
<circle class="hit" cx="164.7" cy="156.7" r="10"><title>IBOV — 2026-08-14: 95.09 (base 100)</title></circle>
<circle class="hit" cx="188.2" cy="156.7" r="10"><title>IBOV — 2026-08-15: 95.09 (base 100)</title></circle>
<circle class="hit" cx="211.8" cy="156.7" r="10"><title>IBOV — 2026-08-16: 95.09 (base 100)</title></circle>
<circle class="hit" cx="235.3" cy="158.7" r="10"><title>IBOV — 2026-08-17: 95.01 (base 100)</title></circle>
<circle class="hit" cx="258.8" cy="164.9" r="10"><title>IBOV — 2026-08-18: 94.75 (base 100)</title></circle>
<circle class="hit" cx="282.4" cy="144.4" r="10"><title>IBOV — 2026-08-19: 95.60 (base 100)</title></circle>
<circle class="hit" cx="305.9" cy="143.1" r="10"><title>IBOV — 2026-08-20: 95.66 (base 100)</title></circle>
<circle class="hit" cx="329.4" cy="100.6" r="10"><title>IBOV — 2026-08-21: 97.43 (base 100)</title></circle>
<circle class="hit" cx="352.9" cy="100.6" r="10"><title>IBOV — 2026-08-22: 97.43 (base 100)</title></circle>
<circle class="hit" cx="376.5" cy="108.6" r="10"><title>IBOV — 2026-08-23: 97.10 (base 100)</title></circle>
<circle class="hit" cx="400.0" cy="88.6" r="10"><title>IBOV — 2026-08-24: 97.93 (base 100)</title></circle>
<path class="line" style="stroke:var(--series-3)" d="M0.0,38.8 L23.5,38.8 L47.1,38.8 L70.6,38.8 L94.1,37.6 L117.6,35.1 L141.2,33.9 L164.7,32.6 L188.2,32.6 L211.8,32.6 L235.3,31.4 L258.8,30.1 L282.4,28.9 L305.9,27.6 L329.4,26.4 L352.9,26.4 L376.5,26.4 L400.0,25.1"/>
<circle class="dot" style="fill:var(--series-3)" cx="0.0" cy="38.8" r="4"/>
<circle class="dot" style="fill:var(--series-3)" cx="23.5" cy="38.8" r="4"/>
<circle class="dot" style="fill:var(--series-3)" cx="47.1" cy="38.8" r="4"/>
<circle class="dot" style="fill:var(--series-3)" cx="70.6" cy="38.8" r="4"/>
<circle class="dot" style="fill:var(--series-3)" cx="94.1" cy="37.6" r="4"/>
<circle class="dot" style="fill:var(--series-3)" cx="117.6" cy="35.1" r="4"/>
<circle class="dot" style="fill:var(--series-3)" cx="141.2" cy="33.9" r="4"/>
<circle class="dot" style="fill:var(--series-3)" cx="164.7" cy="32.6" r="4"/>
<circle class="dot" style="fill:var(--series-3)" cx="188.2" cy="32.6" r="4"/>
<circle class="dot" style="fill:var(--series-3)" cx="211.8" cy="32.6" r="4"/>
<circle class="dot" style="fill:var(--series-3)" cx="235.3" cy="31.4" r="4"/>
<circle class="dot" style="fill:var(--series-3)" cx="258.8" cy="30.1" r="4"/>
<circle class="dot" style="fill:var(--series-3)" cx="282.4" cy="28.9" r="4"/>
<circle class="dot" style="fill:var(--series-3)" cx="305.9" cy="27.6" r="4"/>
<circle class="dot" style="fill:var(--series-3)" cx="329.4" cy="26.4" r="4"/>
<circle class="dot" style="fill:var(--series-3)" cx="352.9" cy="26.4" r="4"/>
<circle class="dot" style="fill:var(--series-3)" cx="376.5" cy="26.4" r="4"/>
<circle class="dot" style="fill:var(--series-3)" cx="400.0" cy="25.1" r="4"/>
<circle class="hit" cx="0.0" cy="38.8" r="10"><title>CDI — 2026-08-06: 100.00 (base 100)</title></circle>
<circle class="hit" cx="23.5" cy="38.8" r="10"><title>CDI — 2026-08-07: 100.00 (base 100)</title></circle>
<circle class="hit" cx="47.1" cy="38.8" r="10"><title>CDI — 2026-08-08: 100.00 (base 100)</title></circle>
<circle class="hit" cx="70.6" cy="38.8" r="10"><title>CDI — 2026-08-09: 100.00 (base 100)</title></circle>
<circle class="hit" cx="94.1" cy="37.6" r="10"><title>CDI — 2026-08-10: 100.05 (base 100)</title></circle>
<circle class="hit" cx="117.6" cy="35.1" r="10"><title>CDI — 2026-08-12: 100.16 (base 100)</title></circle>
<circle class="hit" cx="141.2" cy="33.9" r="10"><title>CDI — 2026-08-13: 100.21 (base 100)</title></circle>
<circle class="hit" cx="164.7" cy="32.6" r="10"><title>CDI — 2026-08-14: 100.26 (base 100)</title></circle>
<circle class="hit" cx="188.2" cy="32.6" r="10"><title>CDI — 2026-08-15: 100.26 (base 100)</title></circle>
<circle class="hit" cx="211.8" cy="32.6" r="10"><title>CDI — 2026-08-16: 100.26 (base 100)</title></circle>
<circle class="hit" cx="235.3" cy="31.4" r="10"><title>CDI — 2026-08-17: 100.31 (base 100)</title></circle>
<circle class="hit" cx="258.8" cy="30.1" r="10"><title>CDI — 2026-08-18: 100.36 (base 100)</title></circle>
<circle class="hit" cx="282.4" cy="28.9" r="10"><title>CDI — 2026-08-19: 100.41 (base 100)</title></circle>
<circle class="hit" cx="305.9" cy="27.6" r="10"><title>CDI — 2026-08-20: 100.47 (base 100)</title></circle>
<circle class="hit" cx="329.4" cy="26.4" r="10"><title>CDI — 2026-08-21: 100.52 (base 100)</title></circle>
<circle class="hit" cx="352.9" cy="26.4" r="10"><title>CDI — 2026-08-22: 100.52 (base 100)</title></circle>
<circle class="hit" cx="376.5" cy="26.4" r="10"><title>CDI — 2026-08-23: 100.52 (base 100)</title></circle>
<circle class="hit" cx="400.0" cy="25.1" r="10"><title>CDI — 2026-08-24: 100.57 (base 100)</title></circle>
<text class="direct" style="fill:var(--series-3)" x="409.0" y="28.1">CDI</text>
<text class="direct" style="fill:var(--series-1)" x="409.0" y="66.0">Carteira</text>
<text class="direct" style="fill:var(--series-2)" x="409.0" y="91.6">IBOV</text>
</g>
</svg>
